<svg id="visual" viewBox="0 0 900 600" width="900" height="600" xmlns="http://www.w3.org/2000/svg" xmlns:xlink="http://www.w3.org/1999/xlink" version="1.1"><rect x="0" y="0" width="900" height="600" fill="#3F1650"></rect><defs><linearGradient id="grad1_0" x1="33.3%" y1="100%" x2="100%" y2="0%"><stop offset="20%" stop-color="#b032e7" stop-opacity="1"></stop><stop offset="80%" stop-color="#b032e7" stop-opacity="1"></stop></linearGradient></defs><defs><linearGradient id="grad1_1" x1="33.3%" y1="100%" x2="100%" y2="0%"><stop offset="20%" stop-color="#b032e7" stop-opacity="1"></stop><stop offset="80%" stop-color="#9c2dcc" stop-opacity="1"></stop></linearGradient></defs><defs><linearGradient id="grad1_2" x1="33.3%" y1="100%" x2="100%" y2="0%"><stop offset="20%" stop-color="#8829b2" stop-opacity="1"></stop><stop offset="80%" stop-color="#9c2dcc" stop-opacity="1"></stop></linearGradient></defs><defs><linearGradient id="grad1_3" x1="33.3%" y1="100%" x2="100%" y2="0%"><stop offset="20%" stop-color="#8829b2" stop-opacity="1"></stop><stop offset="80%" stop-color="#752498" stop-opacity="1"></stop></linearGradient></defs><defs><linearGradient id="grad1_4" x1="33.3%" y1="100%" x2="100%" y2="0%"><stop offset="20%" stop-color="#63207f" stop-opacity="1"></stop><stop offset="80%" stop-color="#752498" stop-opacity="1"></stop></linearGradient></defs><defs><linearGradient id="grad1_5" x1="33.3%" y1="100%" x2="100%" y2="0%"><stop offset="20%" stop-color="#63207f" stop-opacity="1"></stop><stop offset="80%" stop-color="#501b67" stop-opacity="1"></stop></linearGradient></defs><defs><linearGradient id="grad1_6" x1="33.3%" y1="100%" x2="100%" y2="0%"><stop offset="20%" stop-color="#3f1650" stop-opacity="1"></stop><stop offset="80%" stop-color="#501b67" stop-opacity="1"></stop></linearGradient></defs><defs><linearGradient id="grad2_0" x1="0%" y1="100%" x2="66.7%" y2="0%"><stop offset="20%" stop-color="#b032e7" stop-opacity="1"></stop><stop offset="80%" stop-color="#b032e7" stop-opacity="1"></stop></linearGradient></defs><defs><linearGradient id="grad2_1" x1="0%" y1="100%" x2="66.7%" y2="0%"><stop offset="20%" stop-color="#9c2dcc" stop-opacity="1"></stop><stop offset="80%" stop-color="#b032e7" stop-opacity="1"></stop></linearGradient></defs><defs><linearGradient id="grad2_2" x1="0%" y1="100%" x2="66.7%" y2="0%"><stop offset="20%" stop-color="#9c2dcc" stop-opacity="1"></stop><stop offset="80%" stop-color="#8829b2" stop-opacity="1"></stop></linearGradient></defs><defs><linearGradient id="grad2_3" x1="0%" y1="100%" x2="66.7%" y2="0%"><stop offset="20%" stop-color="#752498" stop-opacity="1"></stop><stop offset="80%" stop-color="#8829b2" stop-opacity="1"></stop></linearGradient></defs><defs><linearGradient id="grad2_4" x1="0%" y1="100%" x2="66.7%" y2="0%"><stop offset="20%" stop-color="#752498" stop-opacity="1"></stop><stop offset="80%" stop-color="#63207f" stop-opacity="1"></stop></linearGradient></defs><defs><linearGradient id="grad2_5" x1="0%" y1="100%" x2="66.7%" y2="0%"><stop offset="20%" stop-color="#501b67" stop-opacity="1"></stop><stop offset="80%" stop-color="#63207f" stop-opacity="1"></stop></linearGradient></defs><defs><linearGradient id="grad2_6" x1="0%" y1="100%" x2="66.7%" y2="0%"><stop offset="20%" stop-color="#501b67" stop-opacity="1"></stop><stop offset="80%" stop-color="#3f1650" stop-opacity="1"></stop></linearGradient></defs><g transform="translate(900, 600)"><path d="M-351.5 0C-328.8 -28.9 -306.1 -57.8 -281.1 -75.3C-256.1 -92.8 -228.8 -98.9 -228.6 -132C-228.4 -165.1 -255.2 -225.1 -239.7 -239.7C-224.2 -254.3 -166.3 -223.5 -137.5 -238.2C-108.7 -252.8 -109.1 -313.1 -91 -339.6C-72.9 -366 -36.5 -358.8 0 -351.5L0 0Z" fill="#48185b"></path><path d="M-301.3 0C-281.8 -24.8 -262.4 -49.6 -240.9 -64.6C-219.5 -79.6 -196.2 -84.8 -196 -113.1C-195.8 -141.5 -218.8 -193 -205.5 -205.5C-192.1 -218 -142.5 -191.5 -117.9 -204.1C-93.2 -216.7 -93.5 -268.4 -78 -291.1C-62.5 -313.8 -31.3 -307.5 0 -301.3L0 0Z" fill="#591d73"></path><path d="M-251.1 0C-234.9 -20.6 -218.6 -41.3 -200.8 -53.8C-182.9 -66.3 -163.5 -70.7 -163.3 -94.3C-163.2 -117.9 -182.3 -160.8 -171.2 -171.2C-160.1 -181.6 -118.8 -159.6 -98.2 -170.1C-77.7 -180.6 -77.9 -223.6 -65 -242.5C-52.1 -261.5 -26 -256.3 0 -251.1L0 0Z" fill="#6c228b"></path><path d="M-200.9 0C-187.9 -16.5 -174.9 -33 -160.6 -43C-146.3 -53 -130.8 -56.5 -130.6 -75.4C-130.5 -94.3 -145.9 -128.6 -137 -137C-128.1 -145.3 -95 -127.7 -78.6 -136.1C-62.1 -144.5 -62.3 -178.9 -52 -194C-41.7 -209.2 -20.8 -205 0 -200.9L0 0Z" fill="#7f27a5"></path><path d="M-150.7 0C-140.9 -12.4 -131.2 -24.8 -120.5 -32.3C-109.8 -39.8 -98.1 -42.4 -98 -56.6C-97.9 -70.7 -109.4 -96.5 -102.7 -102.7C-96.1 -109 -71.3 -95.8 -58.9 -102.1C-46.6 -108.4 -46.7 -134.2 -39 -145.5C-31.3 -156.9 -15.6 -153.8 0 -150.7L0 0Z" fill="#922bbf"></path><path d="M-100.4 0C-93.9 -8.3 -87.5 -16.5 -80.3 -21.5C-73.2 -26.5 -65.4 -28.3 -65.3 -37.7C-65.3 -47.2 -72.9 -64.3 -68.5 -68.5C-64 -72.7 -47.5 -63.8 -39.3 -68C-31.1 -72.2 -31.2 -89.5 -26 -97C-20.8 -104.6 -10.4 -102.5 0 -100.4L0 0Z" fill="#a630d9"></path><path d="M-50.2 0C-47 -4.1 -43.7 -8.3 -40.2 -10.8C-36.6 -13.3 -32.7 -14.1 -32.7 -18.9C-32.6 -23.6 -36.5 -32.2 -34.2 -34.2C-32 -36.3 -23.8 -31.9 -19.6 -34C-15.5 -36.1 -15.6 -44.7 -13 -48.5C-10.4 -52.3 -5.2 -51.3 0 -50.2L0 0Z" fill="#b032e7"></path></g><g transform="translate(0, 0)"><path d="M351.5 0C332.5 28.6 313.4 57.2 291.7 78.2C270 99.1 245.7 112.4 238.2 137.5C230.6 162.6 239.7 199.5 233.3 233.3C227 267.2 205 298.1 175.8 304.4C146.5 310.8 110 292.8 79.5 296.5C48.9 300.3 24.5 325.9 0 351.5L0 0Z" fill="#48185b"></path><path d="M301.3 0C285 24.5 268.6 49 250 67C231.4 85 210.6 96.4 204.1 117.9C197.6 139.4 205.5 171 200 200C194.5 229 175.7 255.5 150.7 261C125.6 266.4 94.3 250.9 68.1 254.2C42 257.4 21 279.4 0 301.3L0 0Z" fill="#591d73"></path><path d="M251.1 0C237.5 20.4 223.9 40.9 208.4 55.8C192.9 70.8 175.5 80.3 170.1 98.2C164.7 116.1 171.2 142.5 166.7 166.7C162.1 190.9 146.4 212.9 125.6 217.5C104.7 222 78.6 209.1 56.8 211.8C35 214.5 17.5 232.8 0 251.1L0 0Z" fill="#6c228b"></path><path d="M200.9 0C190 16.3 179.1 32.7 166.7 44.7C154.3 56.6 140.4 64.2 136.1 78.6C131.8 92.9 137 114 133.3 133.3C129.7 152.7 117.2 170.3 100.4 174C83.7 177.6 62.8 167.3 45.4 169.5C28 171.6 14 186.2 0 200.9L0 0Z" fill="#7f27a5"></path><path d="M150.7 0C142.5 12.3 134.3 24.5 125 33.5C115.7 42.5 105.3 48.2 102.1 58.9C98.8 69.7 102.7 85.5 100 100C97.3 114.5 87.9 127.7 75.3 130.5C62.8 133.2 47.1 125.5 34.1 127.1C21 128.7 10.5 139.7 0 150.7L0 0Z" fill="#922bbf"></path><path d="M100.4 0C95 8.2 89.5 16.3 83.3 22.3C77.1 28.3 70.2 32.1 68 39.3C65.9 46.5 68.5 57 66.7 66.7C64.8 76.3 58.6 85.2 50.2 87C41.9 88.8 31.4 83.6 22.7 84.7C14 85.8 7 93.1 0 100.4L0 0Z" fill="#a630d9"></path><path d="M50.2 0C47.5 4.1 44.8 8.2 41.7 11.2C38.6 14.2 35.1 16.1 34 19.6C32.9 23.2 34.2 28.5 33.3 33.3C32.4 38.2 29.3 42.6 25.1 43.5C20.9 44.4 15.7 41.8 11.4 42.4C7 42.9 3.5 46.6 0 50.2L0 0Z" fill="#b032e7"></path></g></svg>