<svg id="visual" viewBox="0 0 1000 1000" width="1000" height="1000" xmlns="http://www.w3.org/2000/svg" xmlns:xlink="http://www.w3.org/1999/xlink" version="1.1"><rect x="0" y="0" width="1000" height="1000" fill="#fff"></rect><defs><linearGradient id="grad1_0" x1="0%" y1="0%" x2="100%" y2="100%"><stop offset="30%" stop-color="#3f1650" stop-opacity="1"></stop><stop offset="70%" stop-color="#3f1650" stop-opacity="1"></stop></linearGradient></defs><defs><linearGradient id="grad1_1" x1="0%" y1="0%" x2="100%" y2="100%"><stop offset="30%" stop-color="#3f1650" stop-opacity="1"></stop><stop offset="70%" stop-color="#644171" stop-opacity="1"></stop></linearGradient></defs><defs><linearGradient id="grad1_2" x1="0%" y1="0%" x2="100%" y2="100%"><stop offset="30%" stop-color="#896d92" stop-opacity="1"></stop><stop offset="70%" stop-color="#644171" stop-opacity="1"></stop></linearGradient></defs><defs><linearGradient id="grad1_3" x1="0%" y1="0%" x2="100%" y2="100%"><stop offset="30%" stop-color="#896d92" stop-opacity="1"></stop><stop offset="70%" stop-color="#af9bb6" stop-opacity="1"></stop></linearGradient></defs><defs><linearGradient id="grad1_4" x1="0%" y1="0%" x2="100%" y2="100%"><stop offset="30%" stop-color="#d7ccda" stop-opacity="1"></stop><stop offset="70%" stop-color="#af9bb6" stop-opacity="1"></stop></linearGradient></defs><defs><linearGradient id="grad1_5" x1="0%" y1="0%" x2="100%" y2="100%"><stop offset="30%" stop-color="#d7ccda" stop-opacity="1"></stop><stop offset="70%" stop-color="#ffffff" stop-opacity="1"></stop></linearGradient></defs><defs><linearGradient id="grad2_0" x1="0%" y1="0%" x2="100%" y2="100%"><stop offset="30%" stop-color="#3f1650" stop-opacity="1"></stop><stop offset="70%" stop-color="#3f1650" stop-opacity="1"></stop></linearGradient></defs><defs><linearGradient id="grad2_1" x1="0%" y1="0%" x2="100%" y2="100%"><stop offset="30%" stop-color="#644171" stop-opacity="1"></stop><stop offset="70%" stop-color="#3f1650" stop-opacity="1"></stop></linearGradient></defs><defs><linearGradient id="grad2_2" x1="0%" y1="0%" x2="100%" y2="100%"><stop offset="30%" stop-color="#644171" stop-opacity="1"></stop><stop offset="70%" stop-color="#896d92" stop-opacity="1"></stop></linearGradient></defs><defs><linearGradient id="grad2_3" x1="0%" y1="0%" x2="100%" y2="100%"><stop offset="30%" stop-color="#af9bb6" stop-opacity="1"></stop><stop offset="70%" stop-color="#896d92" stop-opacity="1"></stop></linearGradient></defs><defs><linearGradient id="grad2_4" x1="0%" y1="0%" x2="100%" y2="100%"><stop offset="30%" stop-color="#af9bb6" stop-opacity="1"></stop><stop offset="70%" stop-color="#d7ccda" stop-opacity="1"></stop></linearGradient></defs><defs><linearGradient id="grad2_5" x1="0%" y1="0%" x2="100%" y2="100%"><stop offset="30%" stop-color="#ffffff" stop-opacity="1"></stop><stop offset="70%" stop-color="#d7ccda" stop-opacity="1"></stop></linearGradient></defs><g transform="translate(1000, 0)"><path d="M0 518C-22.5 501.5 -45.1 485 -69.3 482C-93.5 479.1 -119.5 489.6 -143.1 487.4C-166.8 485.3 -188.2 470.5 -207.3 453.9C-226.4 437.3 -243.2 418.9 -255.7 397.9C-268.2 376.9 -276.4 353.4 -296.7 342.4C-316.9 331.3 -349.1 332.8 -375.6 325.5C-402.1 318.1 -423 301.9 -440.8 283.3C-458.6 264.7 -473.4 243.9 -482.4 220.3C-491.4 196.8 -494.6 170.5 -492.2 144.5C-489.8 118.5 -481.9 92.8 -478.1 68.7C-474.3 44.7 -474.6 22.3 -475 0L0 0Z" fill="#ebe5ec"></path><path d="M0 431.7C-18.8 417.9 -37.6 404.2 -57.8 401.7C-77.9 399.2 -99.5 408 -119.3 406.2C-139 404.4 -156.8 392.1 -172.7 378.3C-188.7 364.4 -202.7 349.1 -213.1 331.6C-223.5 314.1 -230.4 294.5 -247.2 285.3C-264.1 276.1 -290.9 277.4 -313 271.2C-335.1 265.1 -352.5 251.5 -367.3 236.1C-382.2 220.6 -394.5 203.2 -402 183.6C-409.5 164 -412.2 142.1 -410.2 120.4C-408.2 98.8 -401.6 77.3 -398.4 57.3C-395.2 37.2 -395.5 18.6 -395.8 0L0 0Z" fill="#c3b4c8"></path><path d="M0 345.3C-15 334.3 -30.1 323.4 -46.2 321.4C-62.4 319.4 -79.6 326.4 -95.4 324.9C-111.2 323.5 -125.5 313.7 -138.2 302.6C-150.9 291.5 -162.1 279.3 -170.5 265.3C-178.8 251.3 -184.3 235.6 -197.8 228.2C-211.2 220.9 -232.7 221.9 -250.4 217C-268.1 212.1 -282 201.2 -293.9 188.9C-305.8 176.5 -315.6 162.6 -321.6 146.9C-327.6 131.2 -329.7 113.7 -328.1 96.4C-326.6 79 -321.3 61.9 -318.7 45.8C-316.2 29.8 -316.4 14.9 -316.7 0L0 0Z" fill="#9c84a4"></path><path d="M0 259C-11.3 250.8 -22.5 242.5 -34.7 241C-46.8 239.5 -59.7 244.8 -71.6 243.7C-83.4 242.6 -94.1 235.3 -103.6 227C-113.2 218.7 -121.6 209.4 -127.9 199C-134.1 188.5 -138.2 176.7 -148.3 171.2C-158.4 165.7 -174.5 166.4 -187.8 162.7C-201.1 159 -211.5 150.9 -220.4 141.6C-229.3 132.4 -236.7 121.9 -241.2 110.2C-245.7 98.4 -247.3 85.3 -246.1 72.3C-244.9 59.3 -240.9 46.4 -239 34.4C-237.1 22.3 -237.3 11.2 -237.5 0L0 0Z" fill="#765781"></path><path d="M0 172.7C-7.5 167.2 -15 161.7 -23.1 160.7C-31.2 159.7 -39.8 163.2 -47.7 162.5C-55.6 161.8 -62.7 156.8 -69.1 151.3C-75.5 145.8 -81.1 139.6 -85.2 132.6C-89.4 125.6 -92.1 117.8 -98.9 114.1C-105.6 110.4 -116.4 110.9 -125.2 108.5C-134 106 -141 100.6 -146.9 94.4C-152.9 88.2 -157.8 81.3 -160.8 73.4C-163.8 65.6 -164.9 56.8 -164.1 48.2C-163.3 39.5 -160.6 30.9 -159.4 22.9C-158.1 14.9 -158.2 7.4 -158.3 0L0 0Z" fill="#512c60"></path><path d="M0 86.3C-3.8 83.6 -7.5 80.8 -11.6 80.3C-15.6 79.8 -19.9 81.6 -23.9 81.2C-27.8 80.9 -31.4 78.4 -34.5 75.7C-37.7 72.9 -40.5 69.8 -42.6 66.3C-44.7 62.8 -46.1 58.9 -49.4 57.1C-52.8 55.2 -58.2 55.5 -62.6 54.2C-67 53 -70.5 50.3 -73.5 47.2C-76.4 44.1 -78.9 40.6 -80.4 36.7C-81.9 32.8 -82.4 28.4 -82 24.1C-81.6 19.8 -80.3 15.5 -79.7 11.5C-79 7.4 -79.1 3.7 -79.2 0L0 0Z" fill="#3f1650"></path></g><g transform="translate(0, 1000)"><path d="M0 -530.3C22.1 -507 44.2 -483.6 69.2 -481.1C94.2 -478.5 122.1 -496.7 144.8 -493.2C167.6 -489.6 185.1 -464.2 205.6 -450.3C226.1 -436.3 249.5 -433.8 275.2 -428.2C300.9 -422.6 328.8 -414 335.9 -387.7C343.1 -361.4 329.3 -317.5 343.9 -298C358.4 -278.4 401.2 -283.1 418.9 -269.2C436.7 -255.4 429.2 -222.9 437.5 -199.8C445.8 -176.7 469.8 -163.1 489.3 -143.7C508.8 -124.3 523.8 -99.2 516.7 -74.3C509.5 -49.4 480.3 -24.7 451 0L0 0Z" fill="#ebe5ec"></path><path d="M0 -441.9C18.4 -422.5 36.8 -403 57.6 -400.9C78.5 -398.7 101.7 -414 120.7 -411C139.6 -408 154.3 -386.9 171.4 -375.2C188.4 -363.6 207.9 -361.5 229.3 -356.8C250.7 -352.2 274 -345 280 -323.1C285.9 -301.2 274.4 -264.6 286.6 -248.3C298.7 -232 334.4 -235.9 349.1 -224.4C363.9 -212.8 357.7 -185.7 364.6 -166.5C371.5 -147.3 391.5 -135.9 407.8 -119.7C424 -103.6 436.5 -82.7 430.6 -61.9C424.6 -41.2 400.2 -20.6 375.8 0L0 0Z" fill="#c3b4c8"></path><path d="M0 -353.6C14.7 -338 29.4 -322.4 46.1 -320.7C62.8 -319 81.4 -331.2 96.5 -328.8C111.7 -326.4 123.4 -309.5 137.1 -300.2C150.7 -290.9 166.3 -289.2 183.5 -285.5C200.6 -281.7 219.2 -276 224 -258.5C228.7 -241 219.5 -211.7 229.2 -198.6C238.9 -185.6 267.5 -188.7 279.3 -179.5C291.1 -170.2 286.2 -148.6 291.7 -133.2C297.2 -117.8 313.2 -108.7 326.2 -95.8C339.2 -82.9 349.2 -66.1 344.5 -49.5C339.7 -32.9 320.2 -16.5 300.7 0L0 0Z" fill="#9c84a4"></path><path d="M0 -265.2C11 -253.5 22.1 -241.8 34.6 -240.5C47.1 -239.2 61 -248.4 72.4 -246.6C83.8 -244.8 92.6 -232.1 102.8 -225.1C113.1 -218.2 124.8 -216.9 137.6 -214.1C150.4 -211.3 164.4 -207 168 -193.8C171.5 -180.7 164.7 -158.8 171.9 -149C179.2 -139.2 200.6 -141.6 209.5 -134.6C218.3 -127.7 214.6 -111.4 218.8 -99.9C222.9 -88.4 234.9 -81.5 244.7 -71.8C254.4 -62.1 261.9 -49.6 258.3 -37.1C254.8 -24.7 240.1 -12.3 225.5 0L0 0Z" fill="#765781"></path><path d="M0 -176.8C7.4 -169 14.7 -161.2 23.1 -160.4C31.4 -159.5 40.7 -165.6 48.3 -164.4C55.9 -163.2 61.7 -154.7 68.5 -150.1C75.4 -145.4 83.2 -144.6 91.7 -142.7C100.3 -140.9 109.6 -138 112 -129.2C114.4 -120.5 109.8 -105.8 114.6 -99.3C119.5 -92.8 133.7 -94.4 139.6 -89.7C145.6 -85.1 143.1 -74.3 145.8 -66.6C148.6 -58.9 156.6 -54.4 163.1 -47.9C169.6 -41.4 174.6 -33.1 172.2 -24.8C169.8 -16.5 160.1 -8.2 150.3 0L0 0Z" fill="#512c60"></path><path d="M0 -88.4C3.7 -84.5 7.4 -80.6 11.5 -80.2C15.7 -79.7 20.3 -82.8 24.1 -82.2C27.9 -81.6 30.9 -77.4 34.3 -75C37.7 -72.7 41.6 -72.3 45.9 -71.4C50.1 -70.4 54.8 -69 56 -64.6C57.2 -60.2 54.9 -52.9 57.3 -49.7C59.7 -46.4 66.9 -47.2 69.8 -44.9C72.8 -42.6 71.5 -37.1 72.9 -33.3C74.3 -29.5 78.3 -27.2 81.6 -23.9C84.8 -20.7 87.3 -16.5 86.1 -12.4C84.9 -8.2 80 -4.1 75.2 0L0 0Z" fill="#3f1650"></path></g></svg>