<svg id="visual" viewBox="0 0 900 600" width="900" height="600" xmlns="http://www.w3.org/2000/svg" xmlns:xlink="http://www.w3.org/1999/xlink" version="1.1"><rect x="0" y="0" width="900" height="600" fill="#3F1650"></rect><defs><linearGradient id="grad1_0" x1="33.3%" y1="100%" x2="100%" y2="0%"><stop offset="20%" stop-color="#b032e7" stop-opacity="1"></stop><stop offset="80%" stop-color="#b032e7" stop-opacity="1"></stop></linearGradient></defs><defs><linearGradient id="grad1_1" x1="33.3%" y1="100%" x2="100%" y2="0%"><stop offset="20%" stop-color="#b032e7" stop-opacity="1"></stop><stop offset="80%" stop-color="#3f1650" stop-opacity="1"></stop></linearGradient></defs><defs><linearGradient id="grad2_0" x1="0%" y1="100%" x2="66.7%" y2="0%"><stop offset="20%" stop-color="#b032e7" stop-opacity="1"></stop><stop offset="80%" stop-color="#b032e7" stop-opacity="1"></stop></linearGradient></defs><defs><linearGradient id="grad2_1" x1="0%" y1="100%" x2="66.7%" y2="0%"><stop offset="20%" stop-color="#3f1650" stop-opacity="1"></stop><stop offset="80%" stop-color="#b032e7" stop-opacity="1"></stop></linearGradient></defs><g transform="translate(900, 600)"><path d="M-351.5 0C-335.9 -28.9 -320.2 -57.7 -304.3 -81.5C-288.3 -105.3 -272.1 -124.1 -265.9 -153.5C-259.7 -182.9 -263.5 -222.9 -248.6 -248.6C-233.6 -274.2 -199.8 -285.5 -169.5 -293.6C-139.2 -301.7 -112.3 -306.7 -84.6 -315.9C-57 -325 -28.5 -338.3 0 -351.5L0 0Z" fill="#752498"></path><path d="M-175.8 0C-167.9 -14.4 -160.1 -28.9 -152.1 -40.8C-144.2 -52.7 -136 -62.1 -132.9 -76.8C-129.8 -91.4 -131.8 -111.5 -124.3 -124.3C-116.8 -137.1 -99.9 -142.7 -84.8 -146.8C-69.6 -150.9 -56.2 -153.4 -42.3 -157.9C-28.5 -162.5 -14.2 -169.1 0 -175.8L0 0Z" fill="#b032e7"></path></g><g transform="translate(0, 0)"><path d="M351.5 0C317.5 24.9 283.4 49.9 259.8 69.6C236.2 89.3 223 103.8 216.5 125C210 146.2 210.1 174 205.1 205.1C200 236.2 189.8 270.5 170 294.4C150.2 318.4 120.9 331.8 91 339.6C61.1 347.3 30.5 349.4 0 351.5L0 0Z" fill="#752498"></path><path d="M175.8 0C158.7 12.5 141.7 24.9 129.9 34.8C118.1 44.7 111.5 51.9 108.3 62.5C105 73.1 105.1 87 102.5 102.5C100 118.1 94.9 135.3 85 147.2C75.1 159.2 60.5 165.9 45.5 169.8C30.5 173.7 15.3 174.7 0 175.8L0 0Z" fill="#b032e7"></path></g></svg>