<svg id="visual" viewBox="0 0 1300 700" width="1300" height="700" xmlns="http://www.w3.org/2000/svg" xmlns:xlink="http://www.w3.org/1999/xlink" version="1.1"><rect x="0" y="0" width="1300" height="700" fill="#fff"></rect><defs><linearGradient id="grad1_0" x1="46.2%" y1="0%" x2="100%" y2="100%"><stop offset="12.857142857142858%" stop-color="#3f1650" stop-opacity="1"></stop><stop offset="87.14285714285715%" stop-color="#3f1650" stop-opacity="1"></stop></linearGradient></defs><defs><linearGradient id="grad1_1" x1="46.2%" y1="0%" x2="100%" y2="100%"><stop offset="12.857142857142858%" stop-color="#3f1650" stop-opacity="1"></stop><stop offset="87.14285714285715%" stop-color="#644171" stop-opacity="1"></stop></linearGradient></defs><defs><linearGradient id="grad1_2" x1="46.2%" y1="0%" x2="100%" y2="100%"><stop offset="12.857142857142858%" stop-color="#896d92" stop-opacity="1"></stop><stop offset="87.14285714285715%" stop-color="#644171" stop-opacity="1"></stop></linearGradient></defs><defs><linearGradient id="grad1_3" x1="46.2%" y1="0%" x2="100%" y2="100%"><stop offset="12.857142857142858%" stop-color="#896d92" stop-opacity="1"></stop><stop offset="87.14285714285715%" stop-color="#af9bb6" stop-opacity="1"></stop></linearGradient></defs><defs><linearGradient id="grad1_4" x1="46.2%" y1="0%" x2="100%" y2="100%"><stop offset="12.857142857142858%" stop-color="#d7ccda" stop-opacity="1"></stop><stop offset="87.14285714285715%" stop-color="#af9bb6" stop-opacity="1"></stop></linearGradient></defs><defs><linearGradient id="grad1_5" x1="46.2%" y1="0%" x2="100%" y2="100%"><stop offset="12.857142857142858%" stop-color="#d7ccda" stop-opacity="1"></stop><stop offset="87.14285714285715%" stop-color="#ffffff" stop-opacity="1"></stop></linearGradient></defs><defs><linearGradient id="grad2_0" x1="0%" y1="0%" x2="53.8%" y2="100%"><stop offset="12.857142857142858%" stop-color="#3f1650" stop-opacity="1"></stop><stop offset="87.14285714285715%" stop-color="#3f1650" stop-opacity="1"></stop></linearGradient></defs><defs><linearGradient id="grad2_1" x1="0%" y1="0%" x2="53.8%" y2="100%"><stop offset="12.857142857142858%" stop-color="#644171" stop-opacity="1"></stop><stop offset="87.14285714285715%" stop-color="#3f1650" stop-opacity="1"></stop></linearGradient></defs><defs><linearGradient id="grad2_2" x1="0%" y1="0%" x2="53.8%" y2="100%"><stop offset="12.857142857142858%" stop-color="#644171" stop-opacity="1"></stop><stop offset="87.14285714285715%" stop-color="#896d92" stop-opacity="1"></stop></linearGradient></defs><defs><linearGradient id="grad2_3" x1="0%" y1="0%" x2="53.8%" y2="100%"><stop offset="12.857142857142858%" stop-color="#af9bb6" stop-opacity="1"></stop><stop offset="87.14285714285715%" stop-color="#896d92" stop-opacity="1"></stop></linearGradient></defs><defs><linearGradient id="grad2_4" x1="0%" y1="0%" x2="53.8%" y2="100%"><stop offset="12.857142857142858%" stop-color="#af9bb6" stop-opacity="1"></stop><stop offset="87.14285714285715%" stop-color="#d7ccda" stop-opacity="1"></stop></linearGradient></defs><defs><linearGradient id="grad2_5" x1="0%" y1="0%" x2="53.8%" y2="100%"><stop offset="12.857142857142858%" stop-color="#ffffff" stop-opacity="1"></stop><stop offset="87.14285714285715%" stop-color="#d7ccda" stop-opacity="1"></stop></linearGradient></defs><g transform="translate(1300, 0)"><path d="M0 435C-23.8 460.4 -47.6 485.7 -69.9 486C-92.2 486.3 -113 461.4 -128.5 437.5C-144 413.6 -154.2 390.7 -180.3 394.8C-206.4 398.9 -248.3 429.9 -278.4 433.2C-308.6 436.6 -327.1 412.1 -328.1 378.6C-329.1 345.2 -312.7 302.8 -331.8 287.5C-350.9 272.2 -405.4 284 -418.9 269.2C-432.5 254.4 -404.9 213 -417.5 190.7C-430.1 168.3 -482.9 165.1 -503.7 147.9C-524.6 130.7 -513.4 99.7 -505.8 72.7C-498.2 45.8 -494.1 22.9 -490 0L0 0Z" fill="#ebe5ec"></path><path d="M0 362.5C-19.8 383.6 -39.7 404.8 -58.2 405C-76.8 405.2 -94.1 384.5 -107.1 364.6C-120 344.7 -128.5 325.6 -150.2 329C-172 332.4 -206.9 358.3 -232 361C-257.2 363.8 -272.6 343.4 -273.4 315.5C-274.3 287.7 -260.6 252.3 -276.5 239.6C-292.4 226.8 -337.9 236.7 -349.1 224.4C-360.4 212 -337.4 177.5 -347.9 158.9C-358.4 140.3 -402.4 137.6 -419.8 123.3C-437.1 109 -427.8 83.1 -421.5 60.6C-415.2 38.1 -411.7 19.1 -408.3 0L0 0Z" fill="#c3b4c8"></path><path d="M0 290C-15.9 306.9 -31.7 323.8 -46.6 324C-61.4 324.2 -75.3 307.6 -85.6 291.7C-96 275.8 -102.8 260.5 -120.2 263.2C-137.6 265.9 -165.5 286.6 -185.6 288.8C-205.7 291 -218 274.7 -218.7 252.4C-219.4 230.1 -208.5 201.8 -221.2 191.7C-233.9 181.5 -270.3 189.4 -279.3 179.5C-288.3 169.6 -269.9 142 -278.3 127.1C-286.8 112.2 -321.9 110 -335.8 98.6C-349.7 87.2 -342.3 66.5 -337.2 48.5C-332.1 30.5 -329.4 15.3 -326.7 0L0 0Z" fill="#9c84a4"></path><path d="M0 217.5C-11.9 230.2 -23.8 242.9 -34.9 243C-46.1 243.1 -56.5 230.7 -64.2 218.8C-72 206.8 -77.1 195.4 -90.1 197.4C-103.2 199.4 -124.1 215 -139.2 216.6C-154.3 218.3 -163.5 206 -164 189.3C-164.6 172.6 -156.3 151.4 -165.9 143.7C-175.4 136.1 -202.7 142 -209.5 134.6C-216.2 127.2 -202.5 106.5 -208.8 95.3C-215.1 84.2 -241.5 82.5 -251.9 74C-262.3 65.4 -256.7 49.8 -252.9 36.4C-249.1 22.9 -247 11.4 -245 0L0 0Z" fill="#765781"></path><path d="M0 145C-7.9 153.5 -15.9 161.9 -23.3 162C-30.7 162.1 -37.7 153.8 -42.8 145.8C-48 137.9 -51.4 130.2 -60.1 131.6C-68.8 133 -82.8 143.3 -92.8 144.4C-102.9 145.5 -109 137.4 -109.4 126.2C-109.7 115.1 -104.2 100.9 -110.6 95.8C-117 90.7 -135.1 94.7 -139.6 89.7C-144.2 84.8 -135 71 -139.2 63.6C-143.4 56.1 -161 55 -167.9 49.3C-174.9 43.6 -171.1 33.2 -168.6 24.2C-166.1 15.3 -164.7 7.6 -163.3 0L0 0Z" fill="#512c60"></path><path d="M0 72.5C-4 76.7 -7.9 81 -11.6 81C-15.4 81 -18.8 76.9 -21.4 72.9C-24 68.9 -25.7 65.1 -30 65.8C-34.4 66.5 -41.4 71.7 -46.4 72.2C-51.4 72.8 -54.5 68.7 -54.7 63.1C-54.9 57.5 -52.1 50.5 -55.3 47.9C-58.5 45.4 -67.6 47.3 -69.8 44.9C-72.1 42.4 -67.5 35.5 -69.6 31.8C-71.7 28.1 -80.5 27.5 -84 24.7C-87.4 21.8 -85.6 16.6 -84.3 12.1C-83 7.6 -82.3 3.8 -81.7 0L0 0Z" fill="#3f1650"></path></g><g transform="translate(0, 700)"><path d="M0 -487C21.2 -472.1 42.4 -457.3 65.9 -458.3C89.4 -459.3 115.1 -476.1 142.3 -484.5C169.4 -493 197.9 -492.9 218.1 -477.6C238.2 -462.2 250 -431.5 261.7 -407.2C273.3 -382.9 284.8 -365 311.1 -359C337.3 -352.9 378.3 -358.7 395.3 -342.5C412.2 -326.3 405 -288.1 402.1 -258.4C399.2 -228.7 400.5 -207.4 417.5 -190.7C434.5 -173.9 467.2 -161.7 486.5 -142.8C505.7 -123.9 511.6 -98.4 510.7 -73.4C509.9 -48.5 502.5 -24.3 495 0L0 0Z" fill="#ebe5ec"></path><path d="M0 -405.8C17.7 -393.5 35.3 -381.1 54.9 -381.9C74.5 -382.7 95.9 -396.8 118.6 -403.8C141.2 -410.8 164.9 -410.8 181.7 -398C198.5 -385.2 208.4 -359.5 218.1 -339.3C227.8 -319.1 237.3 -304.2 259.2 -299.2C281.1 -294.1 315.3 -298.9 329.4 -285.4C343.5 -271.9 337.5 -240.1 335.1 -215.4C332.7 -190.6 333.8 -172.8 347.9 -158.9C362.1 -144.9 389.3 -134.8 405.4 -119C421.4 -103.3 426.3 -82 425.6 -61.2C424.9 -40.4 418.7 -20.2 412.5 0L0 0Z" fill="#c3b4c8"></path><path d="M0 -324.7C14.1 -314.8 28.3 -304.9 43.9 -305.5C59.6 -306.2 76.8 -317.4 94.8 -323C112.9 -328.6 132 -328.6 145.4 -318.4C158.8 -308.1 166.7 -287.6 174.4 -271.4C182.2 -255.3 189.9 -243.4 207.4 -239.3C224.9 -235.3 252.2 -239.1 263.5 -228.3C274.8 -217.5 270 -192.1 268.1 -172.3C266.1 -152.5 267 -138.3 278.3 -127.1C289.7 -116 311.5 -107.8 324.3 -95.2C337.1 -82.6 341 -65.6 340.5 -49C340 -32.3 335 -16.2 330 0L0 0Z" fill="#9c84a4"></path><path d="M0 -243.5C10.6 -236.1 21.2 -228.6 32.9 -229.1C44.7 -229.6 57.6 -238.1 71.1 -242.3C84.7 -246.5 99 -246.5 109 -238.8C119.1 -231.1 125 -215.7 130.8 -203.6C136.7 -191.4 142.4 -182.5 155.5 -179.5C168.7 -176.5 189.2 -179.3 197.6 -171.2C206.1 -163.1 202.5 -144.1 201.1 -129.2C199.6 -114.4 200.3 -103.7 208.8 -95.3C217.3 -87 233.6 -80.9 243.2 -71.4C252.9 -62 255.8 -49.2 255.4 -36.7C255 -24.3 251.2 -12.1 247.5 0L0 0Z" fill="#765781"></path><path d="M0 -162.3C7.1 -157.4 14.1 -152.4 22 -152.8C29.8 -153.1 38.4 -158.7 47.4 -161.5C56.5 -164.3 66 -164.3 72.7 -159.2C79.4 -154.1 83.3 -143.8 87.2 -135.7C91.1 -127.6 94.9 -121.7 103.7 -119.7C112.4 -117.6 126.1 -119.6 131.8 -114.2C137.4 -108.8 135 -96 134 -86.1C133.1 -76.2 133.5 -69.1 139.2 -63.6C144.8 -58 155.7 -53.9 162.2 -47.6C168.6 -41.3 170.5 -32.8 170.2 -24.5C170 -16.2 167.5 -8.1 165 0L0 0Z" fill="#512c60"></path><path d="M0 -81.2C3.5 -78.7 7.1 -76.2 11 -76.4C14.9 -76.5 19.2 -79.4 23.7 -80.8C28.2 -82.2 33 -82.2 36.3 -79.6C39.7 -77 41.7 -71.9 43.6 -67.9C45.6 -63.8 47.5 -60.8 51.8 -59.8C56.2 -58.8 63.1 -59.8 65.9 -57.1C68.7 -54.4 67.5 -48 67 -43.1C66.5 -38.1 66.8 -34.6 69.6 -31.8C72.4 -29 77.9 -27 81.1 -23.8C84.3 -20.7 85.3 -16.4 85.1 -12.2C85 -8.1 83.7 -4 82.5 0L0 0Z" fill="#3f1650"></path></g></svg>