<svg id="visual" viewBox="0 0 1300 700" width="1300" height="700" xmlns="http://www.w3.org/2000/svg" xmlns:xlink="http://www.w3.org/1999/xlink" version="1.1"><rect x="0" y="0" width="1300" height="700" fill="#fff"></rect><defs><linearGradient id="grad1_0" x1="46.2%" y1="0%" x2="100%" y2="100%"><stop offset="12.857142857142858%" stop-color="#3f1650" stop-opacity="1"></stop><stop offset="87.14285714285715%" stop-color="#3f1650" stop-opacity="1"></stop></linearGradient></defs><defs><linearGradient id="grad1_1" x1="46.2%" y1="0%" x2="100%" y2="100%"><stop offset="12.857142857142858%" stop-color="#3f1650" stop-opacity="1"></stop><stop offset="87.14285714285715%" stop-color="#644171" stop-opacity="1"></stop></linearGradient></defs><defs><linearGradient id="grad1_2" x1="46.2%" y1="0%" x2="100%" y2="100%"><stop offset="12.857142857142858%" stop-color="#896d92" stop-opacity="1"></stop><stop offset="87.14285714285715%" stop-color="#644171" stop-opacity="1"></stop></linearGradient></defs><defs><linearGradient id="grad1_3" x1="46.2%" y1="0%" x2="100%" y2="100%"><stop offset="12.857142857142858%" stop-color="#896d92" stop-opacity="1"></stop><stop offset="87.14285714285715%" stop-color="#af9bb6" stop-opacity="1"></stop></linearGradient></defs><defs><linearGradient id="grad1_4" x1="46.2%" y1="0%" x2="100%" y2="100%"><stop offset="12.857142857142858%" stop-color="#d7ccda" stop-opacity="1"></stop><stop offset="87.14285714285715%" stop-color="#af9bb6" stop-opacity="1"></stop></linearGradient></defs><defs><linearGradient id="grad1_5" x1="46.2%" y1="0%" x2="100%" y2="100%"><stop offset="12.857142857142858%" stop-color="#d7ccda" stop-opacity="1"></stop><stop offset="87.14285714285715%" stop-color="#ffffff" stop-opacity="1"></stop></linearGradient></defs><defs><linearGradient id="grad2_0" x1="0%" y1="0%" x2="53.8%" y2="100%"><stop offset="12.857142857142858%" stop-color="#3f1650" stop-opacity="1"></stop><stop offset="87.14285714285715%" stop-color="#3f1650" stop-opacity="1"></stop></linearGradient></defs><defs><linearGradient id="grad2_1" x1="0%" y1="0%" x2="53.8%" y2="100%"><stop offset="12.857142857142858%" stop-color="#644171" stop-opacity="1"></stop><stop offset="87.14285714285715%" stop-color="#3f1650" stop-opacity="1"></stop></linearGradient></defs><defs><linearGradient id="grad2_2" x1="0%" y1="0%" x2="53.8%" y2="100%"><stop offset="12.857142857142858%" stop-color="#644171" stop-opacity="1"></stop><stop offset="87.14285714285715%" stop-color="#896d92" stop-opacity="1"></stop></linearGradient></defs><defs><linearGradient id="grad2_3" x1="0%" y1="0%" x2="53.8%" y2="100%"><stop offset="12.857142857142858%" stop-color="#af9bb6" stop-opacity="1"></stop><stop offset="87.14285714285715%" stop-color="#896d92" stop-opacity="1"></stop></linearGradient></defs><defs><linearGradient id="grad2_4" x1="0%" y1="0%" x2="53.8%" y2="100%"><stop offset="12.857142857142858%" stop-color="#af9bb6" stop-opacity="1"></stop><stop offset="87.14285714285715%" stop-color="#d7ccda" stop-opacity="1"></stop></linearGradient></defs><defs><linearGradient id="grad2_5" x1="0%" y1="0%" x2="53.8%" y2="100%"><stop offset="12.857142857142858%" stop-color="#ffffff" stop-opacity="1"></stop><stop offset="87.14285714285715%" stop-color="#d7ccda" stop-opacity="1"></stop></linearGradient></defs><g transform="translate(1300, 0)"><path d="M0 365C-18.5 371.2 -37.1 377.4 -53.2 370.2C-69.4 363 -83.1 342.4 -97.2 331C-111.3 319.7 -125.9 317.5 -147.5 322.9C-169.1 328.3 -197.8 341.2 -217.3 338.2C-236.9 335.1 -247.3 316.1 -260.6 300.8C-274 285.5 -290.3 274 -292.5 253.4C-294.6 232.9 -282.5 203.4 -294.4 189.2C-306.4 175 -342.3 176.2 -363.9 166.2C-385.4 156.2 -392.5 135 -388.6 114.1C-384.7 93.2 -369.8 72.6 -373.2 53.7C-376.6 34.7 -398.3 17.3 -420 0L0 0Z" fill="#ebe5ec"></path><path d="M0 304.2C-15.5 309.3 -30.9 314.5 -44.4 308.5C-57.8 302.5 -69.2 285.3 -81 275.9C-92.8 266.4 -104.9 264.6 -122.9 269.1C-140.9 273.6 -164.8 284.4 -181.1 281.8C-197.4 279.3 -206.1 263.4 -217.2 250.7C-228.3 237.9 -242 228.3 -243.7 211.2C-245.5 194.1 -235.4 169.5 -245.4 157.7C-255.3 145.9 -285.3 146.8 -303.2 138.5C-321.2 130.1 -327.1 112.5 -323.8 95.1C-320.6 77.7 -308.1 60.5 -311 44.7C-313.8 28.9 -331.9 14.5 -350 0L0 0Z" fill="#c3b4c8"></path><path d="M0 243.3C-12.4 247.5 -24.7 251.6 -35.5 246.8C-46.2 242 -55.4 228.3 -64.8 220.7C-74.2 213.1 -83.9 211.7 -98.3 215.3C-112.7 218.9 -131.9 227.5 -144.9 225.5C-157.9 223.4 -164.8 210.7 -173.8 200.5C-182.7 190.3 -193.6 182.6 -195 169C-196.4 155.3 -188.3 135.6 -196.3 126.1C-204.2 116.7 -228.2 117.5 -242.6 110.8C-256.9 104.1 -261.7 90 -259.1 76.1C-256.5 62.1 -246.5 48.4 -248.8 35.8C-251 23.1 -265.5 11.6 -280 0L0 0Z" fill="#9c84a4"></path><path d="M0 182.5C-9.3 185.6 -18.5 188.7 -26.6 185.1C-34.7 181.5 -41.5 171.2 -48.6 165.5C-55.7 159.8 -62.9 158.8 -73.7 161.5C-84.5 164.2 -98.9 170.6 -108.7 169.1C-118.4 167.6 -123.6 158 -130.3 150.4C-137 142.7 -145.2 137 -146.2 126.7C-147.3 116.5 -141.3 101.7 -147.2 94.6C-153.2 87.5 -171.2 88.1 -181.9 83.1C-192.7 78.1 -196.2 67.5 -194.3 57.1C-192.3 46.6 -184.9 36.3 -186.6 26.8C-188.3 17.3 -199.1 8.7 -210 0L0 0Z" fill="#765781"></path><path d="M0 121.7C-6.2 123.7 -12.4 125.8 -17.7 123.4C-23.1 121 -27.7 114.1 -32.4 110.3C-37.1 106.6 -42 105.8 -49.2 107.6C-56.4 109.4 -65.9 113.7 -72.4 112.7C-79 111.7 -82.4 105.4 -86.9 100.3C-91.3 95.2 -96.8 91.3 -97.5 84.5C-98.2 77.6 -94.2 67.8 -98.1 63.1C-102.1 58.3 -114.1 58.7 -121.3 55.4C-128.5 52.1 -130.8 45 -129.5 38C-128.2 31.1 -123.3 24.2 -124.4 17.9C-125.5 11.6 -132.8 5.8 -140 0L0 0Z" fill="#512c60"></path><path d="M0 60.8C-3.1 61.9 -6.2 62.9 -8.9 61.7C-11.6 60.5 -13.8 57.1 -16.2 55.2C-18.6 53.3 -21 52.9 -24.6 53.8C-28.2 54.7 -33 56.9 -36.2 56.4C-39.5 55.9 -41.2 52.7 -43.4 50.1C-45.7 47.6 -48.4 45.7 -48.7 42.2C-49.1 38.8 -47.1 33.9 -49.1 31.5C-51.1 29.2 -57.1 29.4 -60.6 27.7C-64.2 26 -65.4 22.5 -64.8 19C-64.1 15.5 -61.6 12.1 -62.2 8.9C-62.8 5.8 -66.4 2.9 -70 0L0 0Z" fill="#3f1650"></path></g><g transform="translate(0, 700)"><path d="M0 -345C13.6 -332.3 27.2 -319.7 48 -333.6C68.7 -347.5 96.6 -388 115.5 -393.4C134.4 -398.8 144.3 -369.1 165.3 -362C186.4 -355 218.7 -370.5 227.1 -353.3C235.5 -336.2 220 -286.3 234.4 -270.6C248.9 -254.8 293.2 -273.2 300 -260C306.8 -246.8 276.1 -202.1 289.4 -186C302.7 -169.9 360.1 -182.4 377.5 -172.4C394.9 -162.4 372.3 -130 361.7 -106.2C351.2 -82.4 352.8 -67.2 354.4 -50.9C355.9 -34.7 357.5 -17.3 359 0L0 0Z" fill="#ebe5ec"></path><path d="M0 -287.5C11.3 -276.9 22.7 -266.4 40 -278C57.3 -289.6 80.5 -323.3 96.3 -327.8C112 -332.3 120.2 -307.6 137.8 -301.7C155.3 -295.8 182.2 -308.7 189.2 -294.4C196.2 -280.1 183.3 -238.6 195.4 -225.5C207.4 -212.3 244.4 -227.6 250 -216.6C255.7 -205.7 230.1 -168.4 241.2 -155C252.3 -141.6 300.1 -152 314.6 -143.7C329.1 -135.4 310.2 -108.3 301.4 -88.5C292.7 -68.7 294 -56 295.3 -42.5C296.6 -28.9 297.9 -14.5 299.2 0L0 0Z" fill="#c3b4c8"></path><path d="M0 -230C9.1 -221.6 18.1 -213.1 32 -222.4C45.8 -231.7 64.4 -258.7 77 -262.3C89.6 -265.9 96.2 -246.1 110.2 -241.4C124.3 -236.6 145.8 -247 151.4 -235.6C157 -224.1 146.7 -190.9 156.3 -180.4C165.9 -169.9 195.5 -182.1 200 -173.3C204.6 -164.5 184 -134.7 192.9 -124C201.8 -113.2 240.1 -121.6 251.7 -114.9C263.3 -108.3 248.2 -86.7 241.2 -70.8C234.1 -54.9 235.2 -44.8 236.2 -34C237.3 -23.1 238.3 -11.6 239.3 0L0 0Z" fill="#9c84a4"></path><path d="M0 -172.5C6.8 -166.2 13.6 -159.8 24 -166.8C34.4 -173.7 48.3 -194 57.8 -196.7C67.2 -199.4 72.1 -184.6 82.7 -181C93.2 -177.5 109.3 -185.2 113.5 -176.7C117.7 -168.1 110 -143.2 117.2 -135.3C124.4 -127.4 146.6 -136.6 150 -130C153.4 -123.4 138 -101 144.7 -93C151.4 -84.9 180.1 -91.2 188.7 -86.2C197.4 -81.2 186.1 -65 180.9 -53.1C175.6 -41.2 176.4 -33.6 177.2 -25.5C178 -17.3 178.7 -8.7 179.5 0L0 0Z" fill="#765781"></path><path d="M0 -115C4.5 -110.8 9.1 -106.6 16 -111.2C22.9 -115.8 32.2 -129.3 38.5 -131.1C44.8 -132.9 48.1 -123 55.1 -120.7C62.1 -118.3 72.9 -123.5 75.7 -117.8C78.5 -112.1 73.3 -95.4 78.1 -90.2C83 -84.9 97.7 -91.1 100 -86.7C102.3 -82.3 92 -67.4 96.5 -62C100.9 -56.6 120 -60.8 125.8 -57.5C131.6 -54.1 124.1 -43.3 120.6 -35.4C117.1 -27.5 117.6 -22.4 118.1 -17C118.6 -11.6 119.2 -5.8 119.7 0L0 0Z" fill="#512c60"></path><path d="M0 -57.5C2.3 -55.4 4.5 -53.3 8 -55.6C11.5 -57.9 16.1 -64.7 19.3 -65.6C22.4 -66.5 24 -61.5 27.6 -60.3C31.1 -59.2 36.4 -61.7 37.8 -58.9C39.2 -56 36.7 -47.7 39.1 -45.1C41.5 -42.5 48.9 -45.5 50 -43.3C51.1 -41.1 46 -33.7 48.2 -31C50.5 -28.3 60 -30.4 62.9 -28.7C65.8 -27.1 62 -21.7 60.3 -17.7C58.5 -13.7 58.8 -11.2 59.1 -8.5C59.3 -5.8 59.6 -2.9 59.8 0L0 0Z" fill="#3f1650"></path></g></svg>