<svg xmlns="http://www.w3.org/2000/svg" viewBox="0 0 389.01 389.01" id="dairy-product">
  <path d="M389.01 160.218c0-.404-.061-.792-.151-1.168v-43.149a4.924 4.924 0 0 0-.091-.913 5.123 5.123 0 0 0-.297-1.03c-.011-.027-.027-.052-.039-.078a4.854 4.854 0 0 0-.245-.496l-33.433-57.785V45.03c0-7.556-6.147-13.703-13.703-13.703H234.523c-7.556 0-13.702 6.147-13.702 13.703v10.581l-33.426 57.773a5.142 5.142 0 0 0-.235.477c-.016.035-.036.068-.051.103a5.04 5.04 0 0 0-.253.814c-.017.073-.03.146-.044.22a5.114 5.114 0 0 0-.09.889v122.059H166.18v-42.748c0-11.393-4.364-22.174-12.29-30.357-6.082-6.282-8.796-11.323-9.358-17.724h.025a5 5 0 0 0 5-5v-19.07c0-6.653-5.413-12.066-12.066-12.066h-35.486c-6.653 0-12.066 5.413-12.066 12.066v19.07a5 5 0 0 0 5 5h.49c-.561 6.401-3.275 11.442-9.359 17.723-7.926 8.184-12.29 18.965-12.29 30.358v42.748H54.575c-19.688 0-35.704 16.017-35.704 35.704v52.096h-.349C8.31 325.745 0 334.055 0 344.268v8.312a5 5 0 0 0 5 5h252.406v.102h126.452a5 5 0 0 0 5-5V309.3c.091-.376.151-.764.151-1.168V160.218zm-192.286-39.33H310.65v34.331H196.724v-34.331zm153.031-53.962 25.435 43.962h-50.87l25.435-43.962zm-29.105 98.292h58.208v137.914H320.65V165.218zm0-10v-34.331h58.208v34.331H320.65zM230.821 45.03a3.707 3.707 0 0 1 3.702-3.703h106.528a3.707 3.707 0 0 1 3.703 3.703v6.923H230.821V45.03zm-2.116 16.924h112.373l-28.312 48.934H200.394l28.311-48.934zm-31.981 103.264H310.65v137.914h-64.151v-28.429a41.41 41.41 0 0 0 7.188.632c22.695 0 41.16-18.464 41.16-41.16 0-22.696-18.465-41.16-41.16-41.16s-41.16 18.464-41.16 41.16c0 1.281.081 2.555.198 3.824a36.366 36.366 0 0 0-1.931-.054h-14.071v-72.727zm14.071 82.727c14.173 0 25.704 11.531 25.704 25.704v52.096h-64.138v-52.096c0-10.088-4.212-19.204-10.961-25.704h49.395zm11.732-13.77c0-17.182 13.979-31.16 31.16-31.16s31.16 13.979 31.16 31.16-13.979 31.16-31.16 31.16c-2.894 0-5.736-.415-8.483-1.191-3.072-11.106-11.38-20.059-22.095-24.008a31.41 31.41 0 0 1-.582-5.961zM99.938 123.046c0-1.14.927-2.066 2.066-2.066h35.486c1.14 0 2.066.927 2.066 2.066v14.07H99.938v-14.07zm-6.685 48.75c5.927-6.121 11.437-13.357 12.194-24.68h29.066c.757 11.323 6.267 18.559 12.194 24.68 6.108 6.309 9.473 14.62 9.473 23.401v42.748H83.779v-42.748a33.47 33.47 0 0 1 9.474-23.401zM28.871 273.649c0-14.173 11.531-25.704 25.704-25.704h82.082c14.173 0 25.704 11.531 25.704 25.704v52.096H28.871v-52.096zm223.535 73.932H10v-3.312c0-4.7 3.823-8.523 8.522-8.523h225.361c4.699 0 8.522 3.823 8.522 8.523v3.312zm-5.907-21.629v-12.82h64.151v34.55h-48.244v-3.414c0-9.323-6.931-17.039-15.907-18.316zm74.151 21.73v-34.55h58.208v34.55H320.65z"></path>
</svg>
