<?xml version="1.0" standalone="no"?>
<!DOCTYPE svg PUBLIC "-//W3C//DTD SVG 20010904//EN"
 "http://www.w3.org/TR/2001/REC-SVG-20010904/DTD/svg10.dtd">
<svg version="1.0" xmlns="http://www.w3.org/2000/svg"
 width="256.000000pt" height="256.000000pt" viewBox="0 0 256.000000 256.000000"
 preserveAspectRatio="xMidYMid meet">

<g transform="translate(0.000000,256.000000) scale(0.100000,-0.100000)"
fill="#000000" stroke="none">
<path d="M1182 2534 c-62 -31 -101 -78 -117 -142 l-12 -47 -56 -6 c-33 -4 -67
-15 -87 -29 -36 -25 -69 -90 -70 -132 l0 -28 -145 0 c-162 0 -197 -9 -253 -63
-19 -18 -43 -50 -55 -72 l-22 -40 -3 -874 c-3 -967 -4 -944 61 -1018 17 -20
54 -47 82 -59 l50 -24 725 0 725 0 50 24 c59 27 106 77 129 137 15 40 16 127
14 929 -3 985 2 915 -71 990 -58 60 -94 70 -259 70 l-148 0 0 28 c0 38 -39
112 -72 136 -16 11 -49 21 -83 24 l-55 5 -11 43 c-17 65 -59 117 -120 148 -69
34 -128 34 -197 0z m133 -94 c20 0 75 -59 75 -81 0 -18 -8 -19 -110 -19 -70 0
-110 4 -110 10 0 47 77 107 118 94 8 -2 20 -4 27 -4z m279 -232 c12 -17 16
-50 16 -140 l0 -118 -331 0 -331 0 4 126 c3 111 5 127 22 140 16 11 76 14 312
14 291 0 293 0 308 -22z m-754 -250 c0 -128 -38 -118 438 -118 363 0 407 2
424 17 15 13 18 31 18 100 l0 83 131 0 c157 0 188 -10 219 -74 20 -42 20 -57
20 -892 0 -789 -1 -851 -18 -883 -9 -19 -30 -44 -45 -55 -28 -21 -38 -21 -735
-24 -658 -2 -709 -1 -741 15 -19 10 -44 31 -55 46 -21 28 -21 37 -24 855 -2
455 0 851 3 880 7 55 40 106 79 122 12 5 81 9 154 9 l132 1 0 -82z"/>
<path d="M1016 1678 c-14 -13 -42 -67 -66 -126 l-40 -102 0 -183 c0 -210 8
-250 53 -277 30 -19 52 -20 317 -20 314 0 323 2 352 60 15 30 18 64 18 228 l0
194 -41 104 c-59 152 -42 144 -330 144 -233 0 -238 -1 -263 -22z m142 -125
c-3 -38 -3 -38 -50 -41 -53 -3 -57 2 -33 48 13 25 22 30 51 30 35 0 35 -1 32
-37z m136 -5 c6 -31 4 -38 -9 -38 -16 0 -19 20 -9 58 8 28 10 26 18 -20z m194
9 c17 -47 17 -47 -33 -47 -36 0 -45 3 -45 18 0 9 -3 27 -6 40 -6 20 -3 22 33
22 35 0 40 -3 51 -33z m-340 -227 c3 -73 13 -90 51 -90 31 0 178 56 204 78 10
9 17 29 17 49 l0 33 55 0 55 0 0 -160 0 -160 -250 0 -250 0 0 160 0 161 58 -3
57 -3 3 -65z m142 60 c-19 -13 -30 -13 -30 0 0 6 10 10 23 10 18 0 19 -2 7
-10z"/>
<path d="M707 782 c-21 -23 -22 -56 -1 -76 13 -14 54 -16 295 -16 174 0 288 4
300 10 23 13 26 62 3 84 -13 14 -54 16 -298 16 -261 0 -284 -1 -299 -18z"/>
<path d="M702 508 c-20 -20 -14 -65 10 -82 20 -14 91 -16 574 -16 521 0 552 1
567 18 20 22 22 63 5 80 -17 17 -1139 17 -1156 0z"/>
</g>
</svg>
