<svg xmlns="http://www.w3.org/2000/svg" viewBox="0 0 64 64" id="food-delivery">
  <defs>
    <linearGradient id="a" x1="32" x2="32" y1="64" y2="0" gradientUnits="userSpaceOnUse">
      <stop offset=".001" stop-color="#ffd255"></stop>
      <stop offset=".999" stop-color="#ff78dc"></stop>
    </linearGradient>
  </defs>
  <path fill="url(#a)" d="m63.54492188,51.62548828c-1-4.99804688-5.42480469-8.62548828-10.52148438-8.62548828h-1.05285645c-.14855957-5.70794678-1.54840088-11.39147949-4.10144043-16.49707031l-1.25115967-2.50292969h1.38201904c.55273438,0,1-.44775391,1-1v-.10107422c2.27929688-.46466064,4-2.48449707,4-4.89892578s-1.72070312-4.43426514-4-4.89892578v-.10107422c0-.55224609-.44726562-1-1-1h-7c-.15820312,0-.3135376.01165771-.46868896.02374268l-2.47955322-3.46862793c.58300781-.69519043.94824219-1.57897949.94824219-2.55511475,0-2.20556641-1.79394531-4-4-4s-4,1.79443359-4,4,1.79394531,4,4,4c.50506592,0,.98400879-.10400391,1.42932129-.2755127l2.03424072,2.84576416c-1.75213623.82183838-3.0411377,2.46289062-3.37322998,4.42974854h-3.09033203c-.55273438,0-1,.44775391-1,1s.44726562,1,1,1h3.09033203c.36517334,2.16278076,1.88781738,3.93188477,3.90966797,4.64996338v17.2098999l-1.75390625,6.14013672h-7.24609375v-14.14196777c1.72052002-.44720459,3-1.99969482,3-3.85803223,0-2.20556641-1.79394531-4-4-4h-7v-13c0-.55224609-.44726562-1-1-1H1c-.55273438,0-1,.44775391-1,1v20c0,.55224609.44726562,1,1,1h6.73950195c-.18292236.11022949-.36761475.21691895-.54614258.3359375-3.87792969,2.58544922-6.19335938,6.91162109-6.19335938,11.57226562v9.09179688c0,.55224609.44726562,1,1,1h2.05072021c.50354004,5.04632568,4.77313232,9,9.94927979,9s9.44573975-3.95367432,9.94927979-9h18.10144043c.50354004,5.04632568,4.77313232,9,9.94927979,9s9.44573975-3.95367432,9.94927979-9h1.05072021c.29980469,0,.58300781-.13427734.7734375-.36621094.18945312-.23144531.265625-.53613281.20703125-.83007812l-.43554688-2.17822266ZM33,6c0-1.10302734.89746094-2,2-2s2,.89697266,2,2-.89746094,2-2,2-2-.89697266-2-2Zm27.34851074,43h-4.34851074c-.55273438,0-1,.44775391-1,1s.44726562,1,1,1h5.30712891c.10949707.33154297.20703125.66894531.27685547,1.01806641l.19628906.98193359h-15.01367188l4.79980469-8h1.45703125c3.0234375,0,5.75097656,1.57348633,7.32507324,4Zm-9.34851074-31c0,1.30194092-.83850098,2.40161133-2,2.81573486v-5.63146973c1.16149902.41412354,2,1.51379395,2,2.81573486Zm-13.85797119,1h3.85797119c.55273438,0,1-.44775391,1-1s-.44726562-1-1-1h-3.85797119c.44714355-1.72027588,1.99926758-3,3.85797119-3h6v8h-6c-1.85870361,0-3.41082764-1.27972412-3.85797119-3Zm-8.14202881,8c1.10253906,0,2,.89697266,2,2s-.89746094,2-2,2h-7v-4h7ZM2,31V13h18v18H2Zm1,13.90820312c0-3.99023438,1.98242188-7.69433594,5.30273438-9.90820312,1.96289062-1.30859375,4.24609375-2,6.60546875-2h13.09179688v15c0,.55224609.44726562,1,1,1h9c.44628906,0,.83886719-.29589844.96191406-.72509766l2-7c.02539062-.08935547.03808594-.18212891.03808594-.27490234v-17h3.38183594l1.69824219,3.39746094c2.5234375,5.04589844,3.87597656,10.68505859,3.91894531,16.32714844l-5.56542969,9.27539062h-18.43359375v-8c0-4.41113281-3.58886719-8-8-8-6.48944092,0-12.13616943,3.65759277-15,9.01696777v-1.10876465Zm11,17.09179688c-4.07177734,0-7.43591309-3.06005859-7.93054199-7h15.86108398c-.49462891,3.93994141-3.85876465,7-7.93054199,7Zm-10.96679688-9c.51660156-7.80615234,7.03222656-14,14.96679688-14,3.30859375,0,6,2.69140625,6,6v8H3.03320312Zm48.96679688,9c-4.07177734,0-7.43591309-3.06005859-7.93054199-7h15.86108398c-.49462891,3.93994141-3.85876465,7-7.93054199,7ZM17,25v-1c0-2.96722412-2.16687012-5.43133545-5-5.90966797v-1.09033203c0-.55224609-.44726562-1-1-1s-1,.44775391-1,1v1.09033203c-2.83312988.47833252-5,2.94244385-5,5.90966797v1c-.55273438,0-1,.44775391-1,1s.44726562,1,1,1h12c.55273438,0,1-.44775391,1-1s-.44726562-1-1-1Zm-10,0v-1c0-2.20556641,1.79394531-4,4-4s4,1.79443359,4,4v1H7Zm13,20c0,.55224609-.44726562,1-1,1h-8c-.55273438,0-1-.44775391-1-1s.44726562-1,1-1h8c.55273438,0,1,.44775391,1,1Zm0,4c0,.55224609-.44726562,1-1,1h-8c-.55273438,0-1-.44775391-1-1s.44726562-1,1-1h8c.55273438,0,1,.44775391,1,1ZM15,1c0-.55224609.44726562-1,1-1h12c.55273438,0,1,.44775391,1,1s-.44726562,1-1,1h-12c-.55273438,0-1-.44775391-1-1Zm-5,4c0-.55224609.44726562-1,1-1h6c.55273438,0,1,.44775391,1,1s-.44726562,1-1,1h-6c-.55273438,0-1-.44775391-1-1Zm-7,0c0-.55224609.44726562-1,1-1h2c.55273438,0,1,.44775391,1,1s-.44726562,1-1,1h-2c-.55273438,0-1-.44775391-1-1Z"></path>
</svg>
