<svg xmlns="http://www.w3.org/2000/svg" width="24" height="24" fill="none" viewBox="0 0 24 24" id="lock">
  <path fill="#8B98A6" fill-rule="evenodd" d="M6.25 6C6.25 3.37665 8.37665 1.25 11 1.25H13C15.6234 1.25 17.75 3.37665 17.75 6V10.5C17.75 10.9142 17.4142 11.25 17 11.25H7C6.58579 11.25 6.25 10.9142 6.25 10.5V6ZM11 2.75C9.20507 2.75 7.75 4.20507 7.75 6V9.75H16.25V6C16.25 4.20507 14.7949 2.75 13 2.75H11Z" clip-rule="evenodd"></path>
  <path fill="#7D8995" fill-rule="evenodd" d="M12 1.25H11C8.37665 1.25 6.25 3.37665 6.25 6V10.5C6.25 10.9142 6.58579 11.25 7 11.25H12V9.75H7.75V6C7.75 4.20507 9.20507 2.75 11 2.75H12V1.25Z" clip-rule="evenodd"></path>
  <path fill="#FFC44D" d="M6 9.75C4.48122 9.75 3.25 10.9812 3.25 12.5V19C3.25 20.5188 4.48122 21.75 6 21.75H18C19.5188 21.75 20.75 20.5188 20.75 19V12.5C20.75 10.9812 19.5188 9.75 18 9.75H6Z"></path>
  <path fill="#E5B045" fill-rule="evenodd" d="M12 9.75V21.75H6C4.48122 21.75 3.25 20.5188 3.25 19V12.5C3.25 10.9812 4.48122 9.75 6 9.75H12Z" clip-rule="evenodd"></path>
  <path fill="#ECEFF1" fill-rule="evenodd" d="M12 15.25C12.4142 15.25 12.75 15.5858 12.75 16V18.5C12.75 18.9142 12.4142 19.25 12 19.25C11.5858 19.25 11.25 18.9142 11.25 18.5V16C11.25 15.5858 11.5858 15.25 12 15.25Z" clip-rule="evenodd"></path>
  <path fill="#CFD8DC" fill-rule="evenodd" d="M12 15.25C11.5858 15.25 11.25 15.5858 11.25 16V18.5C11.25 18.9142 11.5858 19.25 12 19.25V15.25Z" clip-rule="evenodd"></path>
  <path fill="#ECEFF1" d="M12 12.25C10.7574 12.25 9.75 13.2574 9.75 14.5C9.75 15.7426 10.7574 16.75 12 16.75C13.2426 16.75 14.25 15.7426 14.25 14.5C14.25 13.2574 13.2426 12.25 12 12.25Z"></path>
  <path fill="#CFD8DC" fill-rule="evenodd" d="M12 12.25V16.75C10.7574 16.75 9.75 15.7426 9.75 14.5C9.75 13.2574 10.7574 12.25 12 12.25Z" clip-rule="evenodd"></path>
</svg>
