<svg xmlns="http://www.w3.org/2000/svg" width="64" height="64" fill="none" viewBox="0 0 64 64" id="moto">
  <path fill="#F6F6F6" d="M12.8086 35.0488C13.6919 34.719 15.2606 33.5296 14.4693 31.4098C12.8278 31.3935 10.1977 32.0985 12.8086 35.0488Z"></path>
  <path stroke="#000" stroke-linecap="round" stroke-linejoin="round" stroke-width="1.5" d="M12.8086 35.0488C13.6919 34.719 15.2606 33.5296 14.4693 31.4098C12.8278 31.3935 10.1977 32.0985 12.8086 35.0488Z"></path>
  <rect width="13" height="3" x="18.701" y="26" fill="#878787" rx="1.5"></rect>
  <path fill="#D77A5C" d="M18.201 29.5C12.601 31.1 12.201 37.5 12.701 40.5H24.7012V42H40.7012L44.7012 33L40.7012 21.5H41.2012L40.7012 17.5C39.7012 17.8333 37.7012 18.7 37.7012 19.5C37.7012 20.5 39.7012 29 40.7012 33.5C41.075 35.1821 40.9539 36.5658 40.6338 37.6308C40.1109 39.3705 38.2119 40 36.3953 40H33.2012C30.2012 40 29.7012 38 29.7012 36.5C29.7012 35 30.7012 32.1667 31.7012 31.5V29.5H18.201Z"></path>
  <path fill="#D9D9D9" fill-rule="evenodd" d="M19.2012 47C22.2387 47 24.7012 44.5376 24.7012 41.5C24.7012 38.4624 22.2387 36 19.2012 36C16.1636 36 13.7012 38.4624 13.7012 41.5C13.7012 44.5376 16.1636 47 19.2012 47ZM19.2012 43.6154C20.3695 43.6154 21.3166 42.6683 21.3166 41.5C21.3166 40.3317 20.3695 39.3846 19.2012 39.3846C18.0329 39.3846 17.0858 40.3317 17.0858 41.5C17.0858 42.6683 18.0329 43.6154 19.2012 43.6154Z" clip-rule="evenodd"></path>
  <circle cx="19.201" cy="41.5" r="5.5" stroke="#000" stroke-width="1.5"></circle>
  <circle cx="19.201" cy="41.5" r="2.5" stroke="#000" stroke-width="1.5"></circle>
  <path fill="#D77A5C" d="M22.7012 41H12.7012L13.9503 37.3863C15.0647 34.1626 18.1005 32 21.5113 32H22.7012C24.9103 32 26.7012 33.7909 26.7012 36V37C26.7012 39.2091 24.9103 41 22.7012 41Z"></path>
  <path stroke="#000" stroke-linecap="round" stroke-linejoin="round" stroke-width="1.5" d="M22.7012 41H12.7012L13.9503 37.3863C15.0647 34.1626 18.1005 32 21.5113 32H22.7012C24.9103 32 26.7012 33.7909 26.7012 36V37C26.7012 39.2091 24.9103 41 22.7012 41zM18.7012 37H23.2012"></path>
  <path stroke="#000" stroke-linecap="round" stroke-linejoin="round" stroke-width="1.5" d="M18.201 29.5C12.601 31.1 12.201 37.5 12.701 40.5H24.7012V42H40.7012L44.7012 33L40.7012 21.5H41.2012L40.7012 17.5C39.7012 17.8333 37.7012 18.7 37.7012 19.5C37.7012 20.5 39.7012 29 40.7012 33.5C41.075 35.1821 40.9539 36.5658 40.6338 37.6308C40.1109 39.3705 38.2119 40 36.3953 40H33.2012C30.2012 40 29.7012 38 29.7012 36.5C29.7012 35 30.7012 32.1667 31.7012 31.5V29.5H18.201Z"></path>
  <rect width="13" height="3" x="18.701" y="26" stroke="#000" stroke-width="1.5" rx="1.5"></rect>
  <path fill="#D9D9D9" fill-rule="evenodd" d="M47.4536 47C50.4912 47 52.9536 44.5376 52.9536 41.5C52.9536 38.4624 50.4912 36 47.4536 36C44.416 36 41.9536 38.4624 41.9536 41.5C41.9536 44.5376 44.416 47 47.4536 47ZM47.4536 43.6154C48.6219 43.6154 49.569 42.6683 49.569 41.5C49.569 40.3317 48.6219 39.3846 47.4536 39.3846C46.2853 39.3846 45.3382 40.3317 45.3382 41.5C45.3382 42.6683 46.2853 43.6154 47.4536 43.6154Z" clip-rule="evenodd"></path>
  <circle cx="47.454" cy="41.5" r="5.5" stroke="#000" stroke-width="1.5"></circle>
  <circle cx="47.454" cy="41.5" r="2.5" stroke="#000" stroke-width="1.5"></circle>
  <path stroke="#000" stroke-linecap="round" stroke-linejoin="round" stroke-width="1.5" d="M45.4536 37.5L47.4536 41.5"></path>
  <path fill="#D77A5C" d="M44.9537 33C48.1537 33 50.2871 35.3333 50.9537 36.5C44.9538 36.5 41.7871 40.8333 40.9537 43C39.7537 38.2 43.1204 34.3333 44.9537 33Z"></path>
  <path stroke="#000" stroke-linecap="round" stroke-linejoin="round" stroke-width="1.5" d="M44.9537 33C48.1537 33 50.2871 35.3333 50.9537 36.5 44.9538 36.5 41.7871 40.8333 40.9537 43 39.7537 38.2 43.1204 34.3333 44.9537 33zM37.7012 20.5L33.2012 22"></path>
  <path fill="#F6F6F6" d="M40.7013 17.5C40.0346 18.1667 39.1013 19.9 40.7013 21.5C42.2014 20.8333 44.3014 19.1 40.7013 17.5Z"></path>
  <path stroke="#000" stroke-linecap="round" stroke-linejoin="round" stroke-width="1.5" d="M40.7013 17.5C40.0346 18.1667 39.1013 19.9 40.7013 21.5 42.2014 20.8333 44.3014 19.1 40.7013 17.5zM36.7012 37.5H40.7012"></path>
</svg>
