<svg xmlns="http://www.w3.org/2000/svg" fill-rule="evenodd" stroke-linejoin="round" stroke-miterlimit="2" clip-rule="evenodd" viewBox="0 0 129 129" id="scooter">
  <rect width="128" height="128" x=".766" y=".148" fill="none"></rect>
  <path fill="#707070" d="M16.112,81.198c6.917,0 12.533,5.608 12.533,12.516c0,6.907 -5.616,12.515 -12.533,12.515c-6.917,0 -12.532,-5.608 -12.532,-12.515c-0,-6.908 5.615,-12.516 12.532,-12.516Zm0,7.776c2.62,0 4.746,2.124 4.746,4.74c0,2.615 -2.126,4.739 -4.746,4.739c-2.619,-0 -4.745,-2.124 -4.745,-4.739c-0,-2.616 2.126,-4.74 4.745,-4.74Z"></path>
  <path fill-opacity=".14" d="M23.367,83.51c3.193,2.269 5.278,5.995 5.278,10.204c0,6.907 -5.616,12.515 -12.533,12.515c-4.22,0 -7.956,-2.088 -10.228,-5.285c2.049,1.455 4.552,2.311 7.255,2.311c6.917,0 12.532,-5.608 12.532,-12.515c0,-2.693 -0.853,-5.188 -2.304,-7.23Z"></path>
  <path fill="#f32525" d="M34.045,88.769c0.064,0.561 -0.114,1.122 -0.49,1.543c-0.376,0.421 -0.913,0.662 -1.477,0.662c-1.596,0.02 -3.516,0.02 -3.516,0.02c-1.995,-0.924 -4.26,-2.781 -6.169,-5.627c-3.81,-5.682 -11.027,-2.682 -18.687,-2.386c-1.099,0.042 -1.117,-1.861 -0.509,-2.77c3.026,-4.434 8.169,-7.335 13.973,-7.275c8.418,0.088 15.792,7.58 16.875,15.833Z"></path>
  <path fill-opacity=".14" d="M15.747,73.157c0.602,-0.06 1.214,-0.087 1.833,-0.08c8.418,0.087 15.792,7.579 16.875,15.833c0.064,0.56 -0.114,1.122 -0.49,1.543c-0.376,0.42 -0.913,0.661 -1.477,0.661c-1.596,0.02 -3.516,0.02 -3.516,0.02l-0.034,-0.016c0.115,-0.001 0.229,-0.002 0.342,-0.004c0.564,0 1.101,-0.241 1.477,-0.661c0.376,-0.421 0.554,-0.983 0.49,-1.543c-1.023,-7.802 -7.667,-14.923 -15.5,-15.753Zm-12.177,9.768c3.662,-0.376 7.137,-1.079 10.082,-0.79c-2.93,0.212 -6.191,0.857 -9.536,0.986c-0.227,0.009 -0.407,-0.065 -0.546,-0.196Z"></path>
  <path fill="#707070" d="M106.61,46.077c-0.617,-1.624 -2.212,-2.664 -3.947,-2.574c-6.123,0.317 -20.425,1.059 -28.414,1.474c-1.297,0.067 -2.481,0.76 -3.175,1.858c-0.694,1.098 -0.811,2.465 -0.314,3.665c2.625,6.347 6.704,16.208 6.704,16.208l36.979,0c0,0 -5.494,-14.469 -7.833,-20.631Z"></path>
  <path fill-opacity=".14" d="M101.268,43.621c-0,-0 0.02,0.053 0.057,0.148c0.427,1.127 0.274,2.393 -0.41,3.385c-0.685,0.992 -1.813,1.584 -3.019,1.584c-6.695,0 -18.019,0 -23.794,0c-0.91,0 -1.76,0.454 -2.265,1.21c-0.506,0.756 -0.601,1.715 -0.253,2.556c0.001,-0 0.001,0 0.001,0.001c2.577,6.229 5.894,14.248 5.894,14.248l36.979,0c-0,0 -5.494,-14.469 -7.833,-20.631c-0.617,-1.624 -2.212,-2.665 -3.947,-2.575l-1.41,0.074Z"></path>
  <path fill="#707070" d="M107.357,80.011c7.235,0 13.109,5.874 13.109,13.109c-0,7.235 -5.874,13.109 -13.109,13.109c-7.235,0 -13.109,-5.874 -13.109,-13.109c-0,-7.235 5.874,-13.109 13.109,-13.109Zm-0,8.145c2.739,0 4.964,2.224 4.964,4.964c-0,2.74 -2.225,4.964 -4.964,4.964c-2.74,0 -4.964,-2.224 -4.964,-4.964c-0,-2.74 2.224,-4.964 4.964,-4.964Z"></path>
  <path fill-opacity=".12" d="M115.047,82.506c3.282,2.382 5.419,6.251 5.419,10.614c-0,7.235 -5.874,13.109 -13.109,13.109c-4.364,0 -8.232,-2.136 -10.615,-5.419c2.161,1.569 4.818,2.494 7.69,2.494c7.235,0 13.109,-5.873 13.109,-13.108c-0,-2.872 -0.926,-5.529 -2.494,-7.69Zm-12.344,12.344c-1.888,-0.703 -3.235,-2.523 -3.235,-4.654c-0,-2.74 2.224,-4.965 4.964,-4.965c2.132,0 3.951,1.347 4.654,3.235c-0.539,-0.2 -1.121,-0.31 -1.729,-0.31c-2.74,0 -4.964,2.224 -4.964,4.964c-0,0.608 0.109,1.191 0.31,1.73Z"></path>
  <path fill="#f32525" d="M34.771,86.251c2.559,3.666 6.942,5.606 11.375,5.034c17.554,-2.262 62.153,-8.011 77.101,-9.938c1.206,-0.156 2.276,-0.852 2.908,-1.892c0.631,-1.04 0.755,-2.31 0.336,-3.452c-1.43,-3.898 -3.515,-9.584 -5.337,-14.554c-2.311,-6.302 -8.309,-10.491 -15.022,-10.491c-7.531,-0 -17.404,-0 -24.804,-0c-2.505,-0 -4.865,1.173 -6.378,3.17c-1.512,1.997 -2.001,4.587 -1.322,6.998c0.572,2.032 1.167,4.146 1.722,6.115c0.613,2.177 0.275,4.512 -0.929,6.427c-1.204,1.915 -3.163,3.231 -5.391,3.621c-4.029,0.706 -8.859,1.553 -13.134,2.302c-2.539,0.445 -5.136,-0.36 -6.978,-2.164c-1.841,-1.803 -2.701,-4.382 -2.31,-6.93c1.432,-9.33 3.414,-22.241 4.457,-29.036c0.177,-1.153 -0.158,-2.326 -0.918,-3.211c-0.76,-0.886 -1.869,-1.395 -3.036,-1.395c-0.535,-0 -1.07,-0 -1.578,-0c-1.831,-0 -3.427,1.242 -3.877,3.017c-2.303,8.336 -7.633,15.783 -13.029,22.357c-3.385,4.155 -3.604,10.05 -0.537,14.445c2.168,3.11 4.644,6.657 6.681,9.577Z"></path>
  <path fill-opacity=".14" d="M43.693 38.119c.614.235 1.168.62 1.606 1.131.76.885 1.095 2.058.918 3.211-1.043 6.795-3.025 19.706-4.457 29.036-.391 2.548.469 5.127 2.311 6.93 1.841 1.804 4.439 2.609 6.977 2.164l.941-.165c-1.293-.355-2.495-1.034-3.481-1.999-1.841-1.803-2.701-4.382-2.31-6.93 1.432-9.33 3.414-22.241 4.457-29.036.177-1.153-.158-2.326-.918-3.211-.76-.886-1.869-1.395-3.036-1.395-.535 0-1.07 0-1.578 0-.501 0-.984.093-1.43.264zM99.807 51.958c6.362 1.914 17.114 7.558 18.43 20.747 1.316 13.19-28.704 12.822-57.603 17.66l62.203-8.018c1.206-.156 2.277-.852 2.908-1.892.631-1.04.755-2.31.336-3.452-1.429-3.898-3.515-9.584-5.337-14.554-2.311-6.302-8.309-10.491-15.022-10.491l-5.915 0z"></path>
  <path fill="#dbdbdb" d="M40.066,22.067c5.588,-0 10.124,2.227 10.124,4.971c0,2.743 -4.536,4.971 -10.124,4.971l-0,-9.942Z"></path>
  <path fill-opacity=".12" d="M43.536,22.367c3.881,0.696 6.654,2.526 6.654,4.671c0,2.743 -4.536,4.971 -10.124,4.971l-0,-1.615c3.678,-0.745 6.268,-2.524 6.268,-4.597c0,-1.33 -1.064,-2.538 -2.798,-3.43Z"></path>
  <g>
    <path fill="#262626" d="M27.451,91.619c0.125,0.679 0.19,1.379 0.19,2.095c0,6.356 -5.168,11.515 -11.532,11.515c-6.365,0 -11.533,-5.159 -11.533,-11.515c-0,-4.566 2.667,-8.514 6.528,-10.376c0.497,-0.24 0.706,-0.838 0.466,-1.335c-0.24,-0.498 -0.838,-0.707 -1.335,-0.467c-4.531,2.186 -7.659,6.82 -7.659,12.178c-0,7.459 6.063,13.515 13.533,13.515c7.469,0 13.532,-6.056 13.532,-13.515c0,-0.839 -0.077,-1.661 -0.223,-2.458c-0.1,-0.542 -0.622,-0.902 -1.165,-0.802c-0.543,0.1 -0.902,0.622 -0.802,1.165Z"></path>
    <path fill="#262626" d="M16.109,87.974c-3.172,0 -5.746,2.572 -5.746,5.74c-0,3.167 2.574,5.739 5.746,5.739c3.171,-0 5.745,-2.572 5.745,-5.739c0,-3.168 -2.574,-5.74 -5.745,-5.74Zm-0,2c2.067,0 3.745,1.675 3.745,3.74c0,2.064 -1.678,3.739 -3.745,3.739c-2.067,-0 -3.746,-1.675 -3.746,-3.739c-0,-2.065 1.679,-3.74 3.746,-3.74Z"></path>
    <path fill="#262626" d="M35.035 88.656c-.001-.006-.001-.011-.002-.017-1.144-8.721-8.961-16.61-17.856-16.703-6.152-.064-11.603 3.012-14.81 7.712-.002.002-.004.005-.005.008-.512.765-.707 2.033-.448 2.912.262.891.888 1.448 1.827 1.412 3.825-.148 7.539-.972 10.772-1.048 2.878-.068 5.353.467 7.046 2.992 2.032 3.03 4.456 4.994 6.579 5.977.132.061.275.093.42.093 0 0 1.927 0 3.528-.02.837 0 1.646-.363 2.211-.996.566-.634.834-1.478.738-2.322zm-31.197-6.682c-.021-.099-.048-.249-.045-.355.008-.301.081-.623.227-.846 2.848-4.169 7.681-6.894 13.136-6.837 7.938.083 14.867 7.171 15.893 14.954l-.001 0c.03.275-.059.55-.243.756-.186.209-.452.328-.731.328-.004 0-.008 0-.013 0-1.26.015-2.725.019-3.277.019-1.817-.893-3.841-2.613-5.564-5.183-2.117-3.158-5.155-3.963-8.754-3.878-3.194.076-6.855.876-10.628 1.042zM109.22 50.145l-1.679-4.422c-.771-2.031-2.764-3.331-4.933-3.219-6.124.318-20.426 1.06-28.415 1.474-1.621.084-3.101.95-3.968 2.323-.867 1.373-1.014 3.081-.393 4.581.759 1.835 1.639 3.963 2.507 6.062.211.51.796.753 1.306.542.51-.211.753-.797.542-1.307-.868-2.098-1.748-4.227-2.507-6.061-.372-.9-.285-1.925.236-2.749.52-.824 1.408-1.343 2.381-1.394l28.414-1.474c1.302-.067 2.498.713 2.96 1.931 0 0 1.679 4.423 1.679 4.423.196.516.774.776 1.29.58.516-.196.776-.774.58-1.29zM114.995 83.73c2.725 2.221 4.467 5.604 4.467 9.39 0 6.683-5.426 12.109-12.109 12.109-6.683 0-12.109-5.426-12.109-12.109 0-2.814.962-5.406 2.576-7.463.34-.434.264-1.063-.17-1.404-.434-.34-1.064-.264-1.404.17-1.88 2.397-3.002 5.417-3.002 8.697 0 7.787 6.322 14.109 14.109 14.109 7.787 0 14.109-6.322 14.109-14.109 0-4.411-2.029-8.352-5.204-10.94-.428-.349-1.058-.285-1.407.143-.348.428-.284 1.058.144 1.407z"></path>
    <path fill="#262626" d="M107.353 87.156c-3.292 0-5.964 2.673-5.964 5.964 0 3.292 2.672 5.964 5.964 5.964 3.291 0 5.964-2.672 5.964-5.964 0-3.291-2.673-5.964-5.964-5.964zm0 2c2.188 0 3.964 1.776 3.964 3.964 0 2.188-1.776 3.964-3.964 3.964-2.188 0-3.964-1.776-3.964-3.964 0-2.188 1.776-3.964 3.964-3.964zM40.062 21.067c-.552 0-1 .447-1 1l0 9.942c0 .552.448 1 1 1 3.584 0 6.756-.886 8.726-2.205 1.556-1.042 2.398-2.377 2.398-3.766 0-1.39-.842-2.724-2.398-3.766-1.97-1.32-5.142-2.205-8.726-2.205zm1 2.024c2.71.136 5.083.818 6.614 1.843.902.604 1.51 1.298 1.51 2.104 0 .806-.608 1.5-1.51 2.104-1.531 1.025-3.904 1.707-6.614 1.842l0-7.893z"></path>
    <path fill="#262626" d="M47.675,37.128c0,0 0.954,-3.355 1.759,-6.184c0.217,-0.766 0.73,-1.413 1.425,-1.8c0.695,-0.388 1.515,-0.483 2.281,-0.265c1.051,0.299 1.907,0.542 1.907,0.542c0.53,0.151 1.084,-0.158 1.235,-0.688c0.151,-0.531 -0.158,-1.085 -0.688,-1.236c-0,0 -0.856,-0.243 -1.907,-0.542c-1.276,-0.363 -2.643,-0.204 -3.801,0.442c-1.159,0.645 -2.013,1.724 -2.376,3c-0.805,2.829 -1.759,6.184 -1.759,6.184c-0.151,0.531 0.158,1.084 0.689,1.235c0.531,0.151 1.084,-0.157 1.235,-0.688Z"></path>
    <path fill="#262626" d="M33.948,86.824c2.771,3.971 7.52,6.072 12.322,5.453c17.554,-2.263 62.153,-8.011 77.101,-9.938c1.508,-0.195 2.846,-1.065 3.635,-2.365c0.789,-1.3 0.943,-2.888 0.42,-4.316c-1.43,-3.898 -3.515,-9.584 -5.337,-14.553c-2.455,-6.696 -8.829,-11.147 -15.961,-11.147l-24.804,-0c-2.818,-0 -5.473,1.32 -7.175,3.566c-1.701,2.247 -2.252,5.161 -1.488,7.873c0,0 1.722,6.115 1.722,6.115c0.537,1.905 0.242,3.948 -0.812,5.624c-1.054,1.675 -2.768,2.826 -4.717,3.168c-0,0 -13.134,2.302 -13.134,2.302c-2.222,0.389 -4.495,-0.315 -6.106,-1.893c-1.611,-1.578 -2.364,-3.835 -2.022,-6.064c1.432,-9.33 3.414,-22.241 4.457,-29.036c0.222,-1.441 -0.197,-2.908 -1.147,-4.015c-0.95,-1.107 -2.336,-1.743 -3.795,-1.743l-1.578,-0c-2.283,-0 -4.275,1.546 -4.843,3.756c-2.267,8.201 -7.528,15.517 -12.836,21.984c-0.001,0.001 -0.001,0.002 -0.002,0.003c-3.667,4.501 -3.904,10.887 -0.582,15.648c2.168,3.11 4.644,6.657 6.682,9.578Zm1.64,-1.145c-2.038,-2.92 -4.514,-6.468 -6.682,-9.577c0,-0 0,-0 0,-0c-2.811,-4.028 -2.61,-9.432 0.492,-13.24c5.481,-6.679 10.878,-14.255 13.218,-22.724c0.002,-0.007 0.004,-0.014 0.005,-0.021c0.338,-1.33 1.535,-2.262 2.908,-2.262l1.578,-0c0.875,-0 1.707,0.382 2.277,1.046c0.57,0.664 0.821,1.544 0.689,2.409c-0,-0 -4.458,29.035 -4.458,29.035c-0.44,2.866 0.528,5.769 2.6,7.797c2.072,2.028 4.994,2.934 7.85,2.434c4.275,-0.749 9.104,-1.596 13.134,-2.302c2.507,-0.439 4.71,-1.919 6.065,-4.074c1.355,-2.154 1.734,-4.781 1.044,-7.231c-0.554,-1.968 -1.15,-4.082 -1.722,-6.114c-0.594,-2.11 -0.165,-4.376 1.158,-6.123c1.323,-1.748 3.388,-2.774 5.58,-2.774c0,-0 24.804,-0 24.804,-0c6.293,-0 11.917,3.927 14.083,9.836c1.823,4.969 3.908,10.655 5.337,14.553c0.314,0.857 0.221,1.81 -0.252,2.589c-0.473,0.78 -1.276,1.302 -2.181,1.419c-14.947,1.927 -59.547,7.676 -77.1,9.939c-4.064,0.524 -8.082,-1.255 -10.427,-4.615l-0,0Z"></path>
    <path fill="#262626" d="M98.714 76.149l9.945 0c.552 0 1-.448 1-1 0-.552-.448-1-1-1l-9.945 0c-.552 0-1 .448-1 1 0 .552.448 1 1 1zM98.714 70.288l9.945 0c.552 0 1-.448 1-1 0-.552-.448-1-1-1l-9.945 0c-.552 0-1 .448-1 1 0 .552.448 1 1 1z"></path>
  </g>
</svg>
