<svg xmlns="http://www.w3.org/2000/svg" viewBox="0 0 49.87 49.87" id="settings">
  <g>
    <g>
      <path fill="#555" d="m47.32 19.7-3.5-.59a19.48 19.48 0 0 0-1.41-3.4l2.07-2.89a3.06 3.06 0 0 0-.34-4L41 5.75a3.1 3.1 0 0 0-2.18-.91 3 3 0 0 0-1.78.58l-2.9 2.06A20 20 0 0 0 30.66 6l-.58-3.46A3.07 3.07 0 0 0 27 0h-4.35a3.07 3.07 0 0 0-3 2.57L19 6.12a19.21 19.21 0 0 0-3.38 1.42l-2.87-2.06A3 3 0 0 0 11 4.91a3.07 3.07 0 0 0-2.18.9L5.67 8.92a3.08 3.08 0 0 0-.34 4l2.09 2.92A19.37 19.37 0 0 0 6 19.22l-3.46.59a3.07 3.07 0 0 0-2.57 3v4.38a3.08 3.08 0 0 0 2.57 3.05l3.55.6a19.3 19.3 0 0 0 1.42 3.39l-2 2.85a3.08 3.08 0 0 0 .33 4l3.11 3.1a3 3 0 0 0 2.18.91 3.07 3.07 0 0 0 1.78-.57l2.92-2.09a19.76 19.76 0 0 0 3.3 1.36l.58 3.5a3.07 3.07 0 0 0 3 2.57h4.4a3.07 3.07 0 0 0 3-2.57l.6-3.5a20.54 20.54 0 0 0 3.39-1.41l2.89 2.06a3 3 0 0 0 1.79.58 3.1 3.1 0 0 0 2.22-.9l3.1-3.1a3.08 3.08 0 0 0 .33-4l-2.06-2.9a20.15 20.15 0 0 0 1.41-3.4l3.5-.58a3.07 3.07 0 0 0 2.57-3v-4.4a3 3 0 0 0-2.53-3.04ZM24.94 30.61a5.68 5.68 0 1 1 5.67-5.67 5.67 5.67 0 0 1-5.67 5.67Z"></path>
      <circle cx="24.94" cy="24.94" r="13.47" fill="#fafafa"></circle>
      <circle cx="24.94" cy="24.94" r="8.25" fill="#0379d4"></circle>
    </g>
  </g>
</svg>
